<svg xmlns="http://www.w3.org/2000/svg" data-name="Layer 1" viewBox="0 0 118.87 122.88">
  <path d="M68.34 105.81a54.73 54.73 0 0 1-14.06 1.87C26.86 107.7 0 85.81 0 54 0 21.87 26.86 0 54.28 0c27.87 0 54.43 21.74 54.43 54a52.29 52.29 0 0 1-20.52 42c3.75 5.89 8 9.81 13.62 9.81 6.15 0 8.62-4.76 9.06-8.49h8v2.88c-.59 7.43-5.12 22.72-24.4 22.72-13.57 0-20.75-7.87-26.13-17.09Zm-5.1-10C59 87.44 54 79 44.23 79a14.1 14.1 0 0 0-5.62 1l-3.32-6.6c4-3.47 10.56-6.19 18.75-6.19 13 0 19.71 6.28 25 14.3 3.15-6.84 4.64-16.08 4.64-27.55 0-28.6-8.93-43.11-29.83-43.11-20.58 0-29.45 14.7-29.45 43.15s8.91 43 29.49 43a32 32 0 0 0 9-1.16h.39Z" style="fill:#b72c27"/>
</svg>
