<svg xmlns="http://www.w3.org/2000/svg" xml:space="preserve" viewBox="0 0 1082 452.3">
  <g fill="#fff">
    <path d="M1049.4 294.8v5.5h-8v19.1h-6v-19.1h-8v-5.5zM1073.4 319.4v-18.7l-5 18.7h-5l-6-18.7v18.7h-6v-24.6h10l4 16.4 4-16.4h10v24.6z"/>
  </g>
  <g fill="#fff">
    <path d="M798.66 318c-8.962 3.8-17.924 5.7-26.986 5.7-14.34 0-27.285-2.5-38.736-7.5s-21.111-11.9-28.978-20.7-13.941-19.1-18.124-31-6.273-24.7-6.273-38.4c0-14.1 2.091-27.1 6.273-39.2s10.158-22.6 18.024-31.5c7.867-9 17.526-16 28.978-21.1s24.298-7.7 38.737-7.7c9.659 0 18.92 1.5 27.882 4.4s17.128 7.2 24.397 12.8 13.244 12.6 17.925 20.9 7.568 17.8 8.663 28.5h-39.234c-2.49-10.5-7.17-18.4-14.14-23.7s-15.436-7.9-25.493-7.9c-9.261 0-17.128 1.8-23.6 5.4s-11.751 8.4-15.734 14.5-6.97 13-8.763 20.7-2.789 15.7-2.789 24c0 7.9.897 15.6 2.789 23.1 1.792 7.5 4.78 14.2 8.763 20.2s9.26 10.8 15.733 14.4 14.34 5.4 23.6 5.4c13.643 0 24.199-3.5 31.667-10.4s11.75-16.9 13.045-30.1h-41.425v-31.1h78.569v101.7h-26.19l-4.182-21.3c-7.27 9.5-15.435 16.1-24.397 19.9zM920.248 131.3v153.1h91.315v34.9H879.12v-188z"/>
    <path d="M725.868 342.7c-62.835 38.4-157.038 60.2-262.095 60.2-189.302 0-342.655-79.1-342.655-176.8 0-97.6 153.453-176.8 342.655-176.8 105.455 0 199.957 22.3 262.792 60.9C658.054 45.5 534.973.1 394.365 0 178.876 0 4.212 101.2 4.212 226.1s174.664 226.2 390.055 226.2c140.11 0 262.792-45.3 331.602-109.6z"/>
  </g>
  <g fill="#fff">
    <path d="m220.9 273.6-36.3-157h-34.3l53.8 204.7h32.2l45.3-160.8 44.7 160.8h32.3l55.7-204.7H378l-36.3 157-43.8-157h-33.2zM504.9 202.8c-5-7.1-11.3-12.5-18.7-16.2-7.6-3.8-16.4-5.7-26.2-5.7-11 0-20.9 2-29.5 5.9-8.1 3.7-15 9.2-20.6 16.3-10.3 13.1-15.7 31.6-15.7 53.5 0 9.7 1.4 18.9 4.1 27.1 2.7 8.3 6.8 15.6 12 21.7 11 12.8 26.7 19.6 45.4 19.6 9.8 0 17.8-1 24.5-3.1 5.8-1.8 9.7-4.2 12.9-6.3 4.1-2.7 7.8-6 11.2-9.8 2.8-3.3 5.3-6.9 7.5-10.8 3.8-7 5.7-13.6 6.1-17l.3-2.3h-26.7l-.1 1.9c-.7 8.7-12.1 24.2-32.4 24.2-29 0-35.9-21-36.4-39.5h97.2v-2.1c0-11.9-1.2-22.8-3.6-32.3-2.7-9.9-6.4-18.3-11.3-25.1zm-48 2.1c21.5 0 33 11.6 35.1 35.4h-69.6c1.1-19.3 16.4-35.4 34.5-35.4zM654.1 222.4c-2.6-8.3-6.4-15.6-11.3-21.7-5.1-6.3-11.3-11.2-18.4-14.6-7.4-3.5-15.7-5.3-24.7-5.3-8.3.1-15.8 1.9-22.4 5.4-5.5 2.8-10.4 6.8-14.6 11.8v-62.8h-26.6v186h25.3v-12.7c2.2 2.9 5.1 6 8.9 8.7 7.2 5.2 16.1 7.8 26.4 7.8 11.1 0 21.1-2.5 29.5-7.4 7.5-4.4 13.9-10.7 18.9-18.7 4.4-7 7.7-15.3 9.9-24.6 1.9-8 2.9-16.8 2.9-25.4.1-9.3-1.2-18.3-3.8-26.5zm-23.9 30.2c0 14.6-2.9 26.8-8.5 35.4-5.9 9.1-14.5 13.7-25.5 13.7-15.9 0-34.5-11.1-34.5-42.5 0-15 1.9-26.6 5.7-35.4 5.5-12.7 14.8-18.8 28.3-18.8 14.4 0 24.1 5.6 29.5 17.3 4.4 9.6 5 21.3 5 30.3z"/>
  </g>
</svg>
